<svg width="285" height="40" viewBox="0 0 285 40" fill="none" xmlns="http://www.w3.org/2000/svg">
<path d="M14.7879 20.4121H21.7843C21.7843 16.8814 20.9186 14.0862 19.1872 12.0266C17.4911 9.96701 14.9469 8.93721 11.5547 8.93721C9.8586 8.93721 8.30384 9.17627 6.89042 9.65439C5.477 10.1325 4.25793 10.9784 3.2332 12.1921C2.20847 13.369 1.41342 14.9689 0.848052 16.9917C0.282684 18.9778 0 21.4971 0 24.5497C0 27.5288 0.229681 30.0297 0.689042 32.0526C1.1484 34.0386 1.81978 35.6385 2.70317 36.8522C3.62189 38.0291 4.75262 38.8566 6.09537 39.3347C7.47346 39.7761 9.08122 39.9968 10.9187 39.9968C14.8056 39.9968 17.5794 38.9853 19.2402 36.9625C20.9363 34.9029 21.7843 31.9238 21.7843 28.0253H14.7879C14.7879 30.4527 14.5052 32.2181 13.9398 33.3214C13.3745 34.4248 12.4734 34.9765 11.2367 34.9765C10.424 34.9765 9.75259 34.7926 9.22256 34.4248C8.72786 34.0202 8.33918 33.395 8.05649 32.5491C7.77381 31.7032 7.57946 30.6366 7.47346 29.3493C7.36745 28.0253 7.31445 26.4438 7.31445 24.6049C7.31445 22.8763 7.36745 21.3868 7.47346 20.1363C7.57946 18.849 7.77381 17.8009 8.05649 16.9917C8.33918 16.1458 8.7632 15.5206 9.32857 15.116C9.89394 14.6747 10.6183 14.454 11.5017 14.454C12.2084 14.454 12.7738 14.6379 13.1978 15.0057C13.6218 15.3367 13.9398 15.7964 14.1519 16.3849C14.3992 16.9366 14.5582 17.5618 14.6289 18.2606C14.7349 18.9594 14.7879 19.6766 14.7879 20.4121Z" fill="#F9F9F9"/>
<path d="M31.9551 24.5497C31.9551 23.0418 31.9905 21.6442 32.0612 20.357C32.1318 19.0697 32.2908 17.9664 32.5382 17.0469C32.8209 16.1274 33.2272 15.4102 33.7573 14.8953C34.2873 14.3804 34.994 14.123 35.8774 14.123C37.3615 14.123 38.3862 14.9321 38.9516 16.5504C39.5169 18.1686 39.7996 20.8351 39.7996 24.5497C39.7996 28.2644 39.5169 30.9308 38.9516 32.5491C38.3862 34.1673 37.3615 34.9765 35.8774 34.9765C34.994 34.9765 34.2873 34.719 33.7573 34.2041C33.2272 33.6892 32.8209 32.972 32.5382 32.0526C32.2908 31.1331 32.1318 30.0297 32.0612 28.7425C31.9905 27.4552 31.9551 26.0577 31.9551 24.5497ZM24.6407 24.5497C24.6407 27.1242 24.8174 29.4045 25.1707 31.3906C25.5241 33.3398 26.1248 34.9765 26.9728 36.3005C27.8209 37.5878 28.9693 38.544 30.4181 39.1692C31.8668 39.7577 33.6866 40.0335 35.8774 39.9968C37.9622 39.9968 39.7113 39.6841 41.1247 39.0589C42.5735 38.4337 43.7395 37.4774 44.6229 36.1902C45.5063 34.8661 46.1423 33.2295 46.531 31.2802C46.9197 29.331 47.1141 27.0875 47.1141 24.5497C47.1141 21.9384 46.9374 19.6582 46.584 17.7089C46.2307 15.7596 45.63 14.123 44.7819 12.799C43.9339 11.4749 42.7855 10.5003 41.3367 9.87506C39.888 9.21305 38.0682 8.90043 35.8774 8.93721C33.7926 8.93721 32.0258 9.2866 30.5771 9.9854C29.1636 10.6474 28.0152 11.6404 27.1319 12.9645C26.2485 14.2517 25.6124 15.87 25.2237 17.8192C24.835 19.7685 24.6407 22.012 24.6407 24.5497Z" fill="#F9F9F9"/>
<path d="M51.0612 9.70956V39.3899H58.3756V19.8605C58.3756 18.0951 58.7113 16.8078 59.3827 15.9987C60.0894 15.1896 61.0258 14.785 62.1918 14.785C63.2166 14.785 63.9409 15.116 64.365 15.778C64.8243 16.44 65.054 17.3963 65.054 18.6468V39.3899H72.3684V19.8605C72.3684 18.0951 72.7041 16.8078 73.3755 15.9987C74.0822 15.1896 75.0186 14.785 76.1847 14.785C77.2094 14.785 77.9338 15.116 78.3578 15.778C78.8172 16.44 79.0469 17.3963 79.0469 18.6468V39.3899H86.3613V17.8192C86.3613 14.9505 85.7783 12.7622 84.6122 11.2543C83.4815 9.70956 81.697 8.93721 79.2589 8.93721C77.5274 8.93721 76.0257 9.34177 74.7536 10.1509C73.5169 10.9233 72.6158 12.1002 72.0504 13.6817H71.9444C71.5557 12.1369 70.7784 10.96 69.6123 10.1509C68.4816 9.34177 67.0681 8.93721 65.372 8.93721C63.7819 8.93721 62.4038 9.23144 61.2378 9.81989C60.107 10.4084 59.0823 11.383 58.1636 12.7438H58.0576V9.70956H51.0612Z" fill="#F9F9F9"/>
<path d="M91.2277 9.70956V39.3899H98.5421V19.8605C98.5421 18.0951 98.8778 16.8078 99.5492 15.9987C100.256 15.1896 101.192 14.785 102.358 14.785C103.383 14.785 104.107 15.116 104.531 15.778C104.991 16.44 105.221 17.3963 105.221 18.6468V39.3899H112.535V19.8605C112.535 18.0951 112.871 16.8078 113.542 15.9987C114.249 15.1896 115.185 14.785 116.351 14.785C117.376 14.785 118.1 15.116 118.524 15.778C118.984 16.44 119.213 17.3963 119.213 18.6468V39.3899H126.528V17.8192C126.528 14.9505 125.945 12.7622 124.779 11.2543C123.648 9.70956 121.864 8.93721 119.425 8.93721C117.694 8.93721 116.192 9.34177 114.92 10.1509C113.683 10.9233 112.782 12.1002 112.217 13.6817H112.111C111.722 12.1369 110.945 10.96 109.779 10.1509C108.648 9.34177 107.235 8.93721 105.539 8.93721C103.948 8.93721 102.57 9.23144 101.404 9.81989C100.274 10.4084 99.2488 11.383 98.3301 12.7438H98.2241V9.70956H91.2277Z" fill="#F9F9F9"/>
<path d="M137.755 24.5497C137.755 23.0418 137.79 21.6442 137.861 20.357C137.931 19.0697 138.09 17.9664 138.338 17.0469C138.62 16.1274 139.027 15.4102 139.557 14.8953C140.087 14.3804 140.793 14.123 141.677 14.123C143.161 14.123 144.186 14.9321 144.751 16.5504C145.316 18.1686 145.599 20.8351 145.599 24.5497C145.599 28.2644 145.316 30.9308 144.751 32.5491C144.186 34.1673 143.161 34.9765 141.677 34.9765C140.793 34.9765 140.087 34.719 139.557 34.2041C139.027 33.6892 138.62 32.972 138.338 32.0526C138.09 31.1331 137.931 30.0297 137.861 28.7425C137.79 27.4552 137.755 26.0577 137.755 24.5497ZM130.44 24.5497C130.44 27.1242 130.617 29.4045 130.97 31.3906C131.324 33.3398 131.924 34.9765 132.772 36.3005C133.62 37.5878 134.769 38.544 136.217 39.1692C137.666 39.7577 139.486 40.0335 141.677 39.9968C143.762 39.9968 145.511 39.6841 146.924 39.0589C148.373 38.4337 149.539 37.4774 150.422 36.1902C151.306 34.8661 151.942 33.2295 152.33 31.2802C152.719 29.331 152.913 27.0875 152.913 24.5497C152.913 21.9384 152.737 19.6582 152.383 17.7089C152.03 15.7596 151.429 14.123 150.581 12.799C149.733 11.4749 148.585 10.5003 147.136 9.87506C145.687 9.21305 143.868 8.90043 141.677 8.93721C139.592 8.93721 137.825 9.2866 136.376 9.9854C134.963 10.6474 133.815 11.6404 132.931 12.9645C132.048 14.2517 131.412 15.87 131.023 17.8192C130.634 19.7685 130.44 22.012 130.44 24.5497Z" fill="#F9F9F9"/>
<path d="M156.861 9.70956V39.3899H164.175V19.695C164.175 16.4217 165.465 14.785 168.044 14.785C169.14 14.785 169.935 15.0976 170.429 15.7229C170.924 16.3113 171.171 17.3779 171.171 18.9226V39.3899H178.486V17.3779C178.486 14.3988 177.85 12.2473 176.578 10.9233C175.341 9.59922 173.557 8.93721 171.224 8.93721C169.634 8.93721 168.221 9.2866 166.984 9.9854C165.747 10.6474 164.74 11.714 163.963 13.1851H163.857V9.70956H156.861Z" fill="#F9F9F9"/>
<path d="M210.724 36.2453V39.3899H217.721V0H210.406V12.468H210.3C209.523 11.291 208.639 10.4084 207.65 9.81989C206.696 9.23144 205.53 8.93721 204.152 8.93721C201.148 8.93721 198.94 10.1693 197.526 12.6335C196.113 15.0608 195.406 19.0329 195.406 24.5497C195.406 30.0665 196.113 34.0202 197.526 36.4108C198.94 38.8014 201.148 39.9968 204.152 39.9968C205.636 39.9968 206.873 39.7209 207.862 39.1692C208.887 38.6176 209.806 37.6429 210.618 36.2453H210.724ZM202.721 24.5497C202.721 21.3132 202.95 18.8858 203.41 17.2676C203.905 15.6125 204.947 14.785 206.537 14.785C208.162 14.785 209.205 15.6125 209.664 17.2676C210.159 18.8858 210.406 21.3132 210.406 24.5497C210.406 27.7862 210.159 30.232 209.664 31.8871C209.205 33.5053 208.162 34.3145 206.537 34.3145C204.947 34.3145 203.905 33.5053 203.41 31.8871C202.95 30.232 202.721 27.7862 202.721 24.5497Z" fill="#F9F9F9"/>
<path d="M235.901 24.5497V30.3975C235.901 31.2067 235.759 31.9055 235.477 32.4939C235.194 33.0824 234.823 33.5605 234.364 33.9283C233.94 34.2961 233.463 34.5719 232.933 34.7558C232.403 34.9029 231.89 34.9765 231.396 34.9765C230.406 34.9765 229.699 34.5719 229.275 33.7628C228.851 32.9537 228.639 31.979 228.639 30.8389C228.639 29.5148 228.957 28.4667 229.593 27.6943C230.229 26.922 231.29 26.3703 232.774 26.0393C233.233 25.9289 233.745 25.7634 234.311 25.5428C234.876 25.2853 235.406 24.9543 235.901 24.5497ZM222.544 18.8123H229.116V17.9847C229.116 16.8078 229.399 15.87 229.964 15.1712C230.53 14.4724 231.378 14.123 232.509 14.123C233.745 14.123 234.611 14.454 235.106 15.116C235.636 15.7413 235.901 16.6239 235.901 17.7641C235.901 18.7571 235.689 19.5111 235.265 20.026C234.841 20.5409 234.081 20.9454 232.986 21.2397L228.851 22.3982C227.579 22.766 226.484 23.1889 225.565 23.667C224.682 24.1452 223.94 24.752 223.339 25.4876C222.774 26.1864 222.35 27.0507 222.067 28.0805C221.784 29.0735 221.643 30.2688 221.643 31.6664C221.643 32.6594 221.767 33.6708 222.014 34.7006C222.261 35.6937 222.65 36.5947 223.18 37.4039C223.71 38.213 224.417 38.8566 225.3 39.3347C226.184 39.7761 227.261 39.9968 228.533 39.9968C230.3 39.9968 231.731 39.7761 232.827 39.3347C233.957 38.8566 234.947 37.8452 235.795 36.3005H235.901C236.007 36.8154 236.113 37.3487 236.219 37.9004C236.36 38.4153 236.555 38.9118 236.802 39.3899H243.798C243.445 38.5072 243.198 37.6797 243.056 36.9073C242.95 36.135 242.897 35.05 242.897 33.6524V18.0399C242.897 16.7159 242.756 15.5022 242.473 14.3988C242.226 13.2587 241.731 12.2841 240.989 11.4749C240.247 10.6658 239.205 10.0406 237.862 9.59922C236.519 9.15788 234.752 8.93721 232.562 8.93721C231.184 8.93721 229.876 9.10271 228.639 9.43372C227.438 9.72795 226.378 10.2428 225.459 10.9784C224.576 11.6772 223.869 12.6151 223.339 13.792C222.809 14.9321 222.544 16.3665 222.544 18.0951V18.8123Z" fill="#F9F9F9"/>
<path d="M249.705 1.2137V9.70956H245.995V14.8953H249.705V31.8871C249.705 33.395 249.794 34.6455 249.97 35.6385C250.147 36.6315 250.465 37.4406 250.924 38.0659C251.419 38.6543 252.108 39.0589 252.991 39.2796C253.91 39.4635 255.076 39.5554 256.49 39.5554C257.338 39.5554 258.133 39.5186 258.875 39.4451C259.652 39.4083 260.447 39.3899 261.26 39.3899V34.0938C261.013 34.1306 260.748 34.1673 260.465 34.2041C260.182 34.2041 259.9 34.2041 259.617 34.2041C258.557 34.2041 257.85 33.9651 257.497 33.4869C257.179 32.972 257.02 32.1261 257.02 30.9492V14.8953H261.26V9.70956H257.02V1.2137H249.705Z" fill="#F9F9F9"/>
<path d="M277.103 24.5497V30.3975C277.103 31.2067 276.961 31.9055 276.678 32.4939C276.396 33.0824 276.025 33.5605 275.565 33.9283C275.141 34.2961 274.664 34.5719 274.134 34.7558C273.604 34.9029 273.092 34.9765 272.597 34.9765C271.608 34.9765 270.901 34.5719 270.477 33.7628C270.053 32.9537 269.841 31.979 269.841 30.8389C269.841 29.5148 270.159 28.4667 270.795 27.6943C271.431 26.922 272.491 26.3703 273.975 26.0393C274.435 25.9289 274.947 25.7634 275.512 25.5428C276.078 25.2853 276.608 24.9543 277.103 24.5497ZM263.746 18.8123H270.318V17.9847C270.318 16.8078 270.601 15.87 271.166 15.1712C271.732 14.4724 272.58 14.123 273.71 14.123C274.947 14.123 275.813 14.454 276.307 15.116C276.838 15.7413 277.103 16.6239 277.103 17.7641C277.103 18.7571 276.891 19.5111 276.466 20.026C276.042 20.5409 275.283 20.9454 274.187 21.2397L270.053 22.3982C268.781 22.766 267.686 23.1889 266.767 23.667C265.884 24.1452 265.141 24.752 264.541 25.4876C263.975 26.1864 263.551 27.0507 263.269 28.0805C262.986 29.0735 262.845 30.2688 262.845 31.6664C262.845 32.6594 262.968 33.6708 263.216 34.7006C263.463 35.6937 263.852 36.5947 264.382 37.4039C264.912 38.213 265.618 38.8566 266.502 39.3347C267.385 39.7761 268.463 39.9968 269.735 39.9968C271.502 39.9968 272.933 39.7761 274.028 39.3347C275.159 38.8566 276.148 37.8452 276.997 36.3005H277.103C277.209 36.8154 277.315 37.3487 277.421 37.9004C277.562 38.4153 277.756 38.9118 278.004 39.3899H285C284.647 38.5072 284.399 37.6797 284.258 36.9073C284.152 36.135 284.099 35.05 284.099 33.6524V18.0399C284.099 16.7159 283.958 15.5022 283.675 14.3988C283.428 13.2587 282.933 12.2841 282.191 11.4749C281.449 10.6658 280.406 10.0406 279.064 9.59922C277.721 9.15788 275.954 8.93721 273.763 8.93721C272.385 8.93721 271.078 9.10271 269.841 9.43372C268.64 9.72795 267.58 10.2428 266.661 10.9784C265.777 11.6772 265.071 12.6151 264.541 13.792C264.011 14.9321 263.746 16.3665 263.746 18.0951V18.8123Z" fill="#F9F9F9"/>
</svg>
