<svg width="512" height="512" viewBox="0 0 512 512" fill="none" xmlns="http://www.w3.org/2000/svg">
<path d="M182.461 155.48L232 105.941V368C232 374.365 234.529 380.47 239.029 384.971C243.53 389.471 249.635 392 256 392C262.365 392 268.47 389.471 272.971 384.971C277.471 380.47 280 374.365 280 368V105.941L329.539 155.48C331.765 157.719 334.412 159.496 337.326 160.71C340.24 161.924 343.366 162.551 346.523 162.556C349.68 162.56 352.807 161.941 355.725 160.735C358.643 159.529 361.294 157.759 363.526 155.526C365.759 153.294 367.529 150.643 368.735 147.725C369.941 144.807 370.56 141.68 370.556 138.523C370.551 135.366 369.924 132.24 368.71 129.326C367.496 126.412 365.719 123.765 363.48 121.539L272.971 31.029C270.742 28.8003 268.097 27.0323 265.185 25.8262C262.273 24.62 259.152 23.9991 256 23.9991C252.848 23.9991 249.727 24.62 246.815 25.8262C243.903 27.0323 241.258 28.8003 239.029 31.029L148.52 121.539C146.281 123.765 144.504 126.412 143.29 129.326C142.076 132.24 141.449 135.366 141.444 138.523C141.44 141.68 142.059 144.807 143.265 147.725C144.471 150.643 146.241 153.294 148.474 155.526C150.706 157.759 153.357 159.529 156.275 160.735C159.193 161.941 162.32 162.56 165.477 162.556C168.634 162.551 171.76 161.924 174.674 160.71C177.588 159.496 180.235 157.719 182.461 155.48V155.48Z" fill="white"/>
<path d="M464 232C457.635 232 451.53 234.529 447.029 239.029C442.529 243.53 440 249.635 440 256V440H72V256C72 249.635 69.4714 243.53 64.9706 239.029C60.4697 234.529 54.3652 232 48 232C41.6348 232 35.5303 234.529 31.0294 239.029C26.5286 243.53 24 249.635 24 256V448C24 458.609 28.2143 468.783 35.7157 476.284C43.2172 483.786 53.3913 488 64 488H448C458.609 488 468.783 483.786 476.284 476.284C483.786 468.783 488 458.609 488 448V256C488 249.635 485.471 243.53 480.971 239.029C476.47 234.529 470.365 232 464 232Z" fill="white"/>
</svg>
