<svg width="959" height="700" viewBox="0 0 959 700" fill="none" xmlns="http://www.w3.org/2000/svg">
<rect width="959" height="699.22" rx="8" fill="#282828"/>
<path d="M377.56 339.491H447.754C446.744 322.658 442.704 308.181 435.634 296.061C428.564 283.605 419.306 273.337 407.859 265.257C396.75 256.84 383.956 250.612 369.48 246.572C355.34 242.532 340.527 240.512 325.041 240.512C303.831 240.512 284.978 244.047 268.482 251.117C251.985 258.187 238.014 268.119 226.567 280.912C215.121 293.368 206.367 308.35 200.308 325.856C194.584 343.026 191.723 361.71 191.723 381.91C191.723 401.436 194.921 419.448 201.318 435.944C207.714 452.104 216.636 466.076 228.082 477.859C239.529 489.642 253.332 498.9 269.491 505.633C285.988 512.03 303.999 515.228 323.526 515.228C358.202 515.228 386.65 506.138 408.869 487.959C431.089 469.779 444.556 443.351 449.269 408.675H380.085C377.728 424.834 371.837 437.796 362.41 447.559C353.32 456.986 340.19 461.699 323.021 461.699C311.911 461.699 302.484 459.174 294.741 454.124C286.998 449.074 280.77 442.678 276.056 434.934C271.68 426.854 268.482 417.933 266.462 408.17C264.442 398.407 263.432 388.812 263.432 379.385C263.432 369.622 264.442 359.859 266.462 350.096C268.482 339.996 271.848 330.906 276.561 322.826C281.611 314.409 288.008 307.676 295.751 302.626C303.494 297.24 313.089 294.546 324.536 294.546C355.172 294.546 372.847 309.528 377.56 339.491Z" fill="#F9F9F9"/>
<path d="M692.786 377.365C692.786 388.138 691.776 398.575 689.756 408.675C687.736 418.775 684.369 427.864 679.656 435.944C674.943 443.688 668.546 449.916 660.466 454.629C652.723 459.342 642.96 461.699 631.176 461.699C620.067 461.699 610.472 459.342 602.392 454.629C594.649 449.579 588.084 443.183 582.697 435.439C577.647 427.359 573.944 418.27 571.587 408.17C569.231 398.07 568.052 387.97 568.052 377.87C568.052 367.097 569.062 356.829 571.082 347.066C573.439 336.966 576.974 328.044 581.687 320.301C586.737 312.558 593.302 306.33 601.382 301.616C609.462 296.903 619.393 294.546 631.176 294.546C642.96 294.546 652.723 296.903 660.466 301.616C668.209 306.33 674.438 312.558 679.151 320.301C684.201 327.708 687.736 336.461 689.756 346.561C691.776 356.324 692.786 366.592 692.786 377.365ZM693.796 475.334V508.663H761.97V148.099H690.261V279.397H689.251C681.171 266.604 670.061 257.009 655.921 250.612C642.118 243.879 627.473 240.512 611.987 240.512C592.797 240.512 575.964 244.384 561.488 252.127C547.011 259.534 534.891 269.465 525.128 281.922C515.702 294.378 508.463 308.855 503.413 325.351C498.7 341.511 496.344 358.344 496.344 375.85C496.344 394.03 498.7 411.536 503.413 428.369C508.463 445.203 515.702 460.184 525.128 473.314C534.891 486.107 547.179 496.375 561.993 504.118C576.806 511.525 593.975 515.228 613.502 515.228C630.672 515.228 645.99 512.198 659.456 506.138C673.259 499.742 684.369 489.474 692.786 475.334H693.796Z" fill="#F9F9F9"/>
</svg>
