<svg width="890" height="119" viewBox="0 0 890 119" fill="none" xmlns="http://www.w3.org/2000/svg">
<path d="M46.1798 60.7261H68.0282C68.0282 50.2221 65.3248 41.9065 59.9178 35.7792C54.6212 29.6518 46.6763 26.5882 36.0831 26.5882C30.7865 26.5882 25.9313 27.2994 21.5174 28.7218C17.1036 30.1442 13.2967 32.6608 10.0967 36.2715C6.89662 39.7729 4.41384 44.5325 2.6483 50.5504C0.882767 56.4589 0 63.9539 0 73.0354C0 81.8982 0.717248 89.3385 2.15175 95.3564C3.58624 101.265 5.68281 106.024 8.44146 109.635C11.3105 113.137 14.8415 115.598 19.0347 117.021C23.3382 118.334 28.3589 118.99 34.0969 118.99C46.2349 118.99 54.8971 115.981 60.0833 109.963C65.3799 103.836 68.0282 94.9734 68.0282 83.3753H46.1798C46.1798 90.5968 45.297 95.8488 43.5315 99.1313C41.7659 102.414 38.9521 104.055 35.09 104.055C32.552 104.055 30.4555 103.508 28.8003 102.414C27.2554 101.21 26.0416 99.3501 25.1589 96.8335C24.2761 94.3169 23.6692 91.1439 23.3382 87.3143C23.0071 83.3753 22.8416 78.6704 22.8416 73.1996C22.8416 68.057 23.0071 63.6256 23.3382 59.9055C23.6692 56.0759 24.2761 52.9575 25.1589 50.5504C26.0416 48.0338 27.3658 46.1737 29.1313 44.9701C30.8969 43.6571 33.1589 43.0006 35.9176 43.0006C38.1245 43.0006 39.89 43.5477 41.2142 44.6419C42.5383 45.6266 43.5315 46.9943 44.1935 48.745C44.966 50.3863 45.4625 52.2463 45.6832 54.3252C46.0142 56.4042 46.1798 58.5378 46.1798 60.7261Z" fill="#F9F9F9"/>
<path d="M99.7898 73.0354C99.7898 68.5494 99.9001 64.3916 100.121 60.562C100.341 56.7324 100.838 53.4499 101.61 50.7145C102.493 47.9791 103.762 45.8455 105.417 44.3136C107.073 42.7818 109.28 42.0159 112.038 42.0159C116.673 42.0159 119.873 44.4231 121.638 49.2374C123.404 54.0517 124.287 61.9844 124.287 73.0354C124.287 84.0865 123.404 92.0192 121.638 96.8335C119.873 101.648 116.673 104.055 112.038 104.055C109.28 104.055 107.073 103.289 105.417 101.757C103.762 100.225 102.493 98.0918 101.61 95.3564C100.838 92.621 100.341 89.3385 100.121 85.5089C99.9001 81.6794 99.7898 77.5215 99.7898 73.0354ZM76.9482 73.0354C76.9482 80.6946 77.4999 87.4784 78.6033 93.3869C79.7068 99.186 81.5827 104.055 84.231 107.994C86.8793 111.824 90.4655 114.668 94.9897 116.528C99.5139 118.279 105.197 119.1 112.038 118.99C118.549 118.99 124.011 118.06 128.425 116.2C132.949 114.34 136.59 111.495 139.349 107.666C142.107 103.727 144.094 98.8577 145.307 93.0587C146.521 87.2596 147.128 80.5852 147.128 73.0354C147.128 65.2669 146.576 58.4831 145.473 52.684C144.37 46.8849 142.494 42.0159 139.845 38.0769C137.197 34.1379 133.611 31.2384 129.087 29.3783C124.562 27.4088 118.88 26.4788 112.038 26.5882C105.528 26.5882 100.01 27.6276 95.4863 29.7066C91.0724 31.676 87.4862 34.6303 84.7275 38.5693C81.9689 42.3989 79.9827 47.2132 78.7689 53.0122C77.5551 58.8113 76.9482 65.4857 76.9482 73.0354Z" fill="#F9F9F9"/>
<path d="M159.454 28.8859V117.185H182.296V59.0849C182.296 53.8329 183.344 50.0033 185.441 47.5961C187.648 45.189 190.572 43.9854 194.213 43.9854C197.413 43.9854 199.675 44.9701 200.999 46.9396C202.434 48.9091 203.151 51.754 203.151 55.4741V117.185H225.993V59.0849C225.993 53.8329 227.041 50.0033 229.138 47.5961C231.344 45.189 234.269 43.9854 237.91 43.9854C241.11 43.9854 243.372 44.9701 244.696 46.9396C246.131 48.9091 246.848 51.754 246.848 55.4741V117.185H269.69V53.0122C269.69 44.4778 267.869 37.9675 264.228 33.4814C260.697 28.8859 255.124 26.5882 247.51 26.5882C242.103 26.5882 237.414 27.7918 233.441 30.1989C229.579 32.4967 226.765 35.998 225 40.7029H224.669C223.455 36.1074 221.027 32.6061 217.386 30.1989C213.855 27.7918 209.441 26.5882 204.144 26.5882C199.179 26.5882 194.875 27.4635 191.234 29.2142C187.703 30.9648 184.503 33.8644 181.634 37.9128H181.303V28.8859H159.454Z" fill="#F9F9F9"/>
<path d="M284.886 28.8859V117.185H307.728V59.0849C307.728 53.8329 308.776 50.0033 310.873 47.5961C313.08 45.189 316.004 43.9854 319.645 43.9854C322.845 43.9854 325.107 44.9701 326.432 46.9396C327.866 48.9091 328.583 51.754 328.583 55.4741V117.185H351.425V59.0849C351.425 53.8329 352.473 50.0033 354.57 47.5961C356.777 45.189 359.701 43.9854 363.342 43.9854C366.542 43.9854 368.804 44.9701 370.129 46.9396C371.563 48.9091 372.28 51.754 372.28 55.4741V117.185H395.122V53.0122C395.122 44.4778 393.301 37.9675 389.66 33.4814C386.129 28.8859 380.556 26.5882 372.942 26.5882C367.535 26.5882 362.846 27.7918 358.873 30.1989C355.011 32.4967 352.197 35.998 350.432 40.7029H350.101C348.887 36.1074 346.459 32.6061 342.818 30.1989C339.287 27.7918 334.873 26.5882 329.576 26.5882C324.611 26.5882 320.307 27.4635 316.666 29.2142C313.135 30.9648 309.935 33.8644 307.066 37.9128H306.735V28.8859H284.886Z" fill="#F9F9F9"/>
<path d="M430.181 73.0354C430.181 68.5494 430.291 64.3916 430.512 60.562C430.733 56.7324 431.229 53.4499 432.002 50.7145C432.884 47.9791 434.153 45.8455 435.809 44.3136C437.464 42.7818 439.671 42.0159 442.429 42.0159C447.064 42.0159 450.264 44.4231 452.029 49.2374C453.795 54.0517 454.678 61.9844 454.678 73.0354C454.678 84.0865 453.795 92.0192 452.029 96.8335C450.264 101.648 447.064 104.055 442.429 104.055C439.671 104.055 437.464 103.289 435.809 101.757C434.153 100.225 432.884 98.0918 432.002 95.3564C431.229 92.621 430.733 89.3385 430.512 85.5089C430.291 81.6794 430.181 77.5215 430.181 73.0354ZM407.339 73.0354C407.339 80.6946 407.891 87.4784 408.995 93.3869C410.098 99.186 411.974 104.055 414.622 107.994C417.27 111.824 420.857 114.668 425.381 116.528C429.905 118.279 435.588 119.1 442.429 118.99C448.94 118.99 454.402 118.06 458.816 116.2C463.34 114.34 466.981 111.495 469.74 107.666C472.499 103.727 474.485 98.8577 475.699 93.0587C476.912 87.2596 477.519 80.5852 477.519 73.0354C477.519 65.2669 476.968 58.4831 475.864 52.684C474.761 46.8849 472.885 42.0159 470.236 38.0769C467.588 34.1379 464.002 31.2384 459.478 29.3783C454.954 27.4088 449.271 26.4788 442.429 26.5882C435.919 26.5882 430.402 27.6276 425.877 29.7066C421.464 31.676 417.877 34.6303 415.119 38.5693C412.36 42.3989 410.374 47.2132 409.16 53.0122C407.946 58.8113 407.339 65.4857 407.339 73.0354Z" fill="#F9F9F9"/>
<path d="M489.845 28.8859V117.185H512.687V58.5925C512.687 48.8544 516.714 43.9854 524.77 43.9854C528.19 43.9854 530.673 44.9154 532.218 46.7755C533.763 48.5262 534.535 51.6993 534.535 56.2947V117.185H557.377V51.6992C557.377 42.8365 555.391 36.4357 551.418 32.4967C547.556 28.5577 541.984 26.5882 534.701 26.5882C529.735 26.5882 525.321 27.6276 521.459 29.7066C517.597 31.676 514.452 34.8491 512.025 39.2258H511.694V28.8859H489.845Z" fill="#F9F9F9"/>
<path d="M658.051 107.83V117.185H679.9V0H657.058V37.0922H656.727C654.299 33.5908 651.541 30.9648 648.451 29.2142C645.472 27.4635 641.83 26.5882 637.527 26.5882C628.147 26.5882 621.251 30.2536 616.837 37.5845C612.423 44.806 610.216 56.623 610.216 73.0354C610.216 89.4479 612.423 101.21 616.837 108.322C621.251 115.434 628.147 118.99 637.527 118.99C642.161 118.99 646.024 118.17 649.113 116.528C652.313 114.887 655.182 111.988 657.72 107.83H658.051ZM633.058 73.0354C633.058 63.4068 633.775 56.1853 635.21 51.371C636.754 46.4473 640.01 43.9854 644.975 43.9854C650.051 43.9854 653.306 46.4473 654.741 51.371C656.286 56.1853 657.058 63.4068 657.058 73.0354C657.058 82.6641 656.286 89.9403 654.741 94.864C653.306 99.6783 650.051 102.086 644.975 102.086C640.01 102.086 636.754 99.6783 635.21 94.864C633.775 89.9403 633.058 82.6641 633.058 73.0354Z" fill="#F9F9F9"/>
<path d="M736.673 73.0354V90.4327C736.673 92.8398 736.231 94.9187 735.349 96.6694C734.466 98.4201 733.307 99.8425 731.873 100.937C730.548 102.031 729.059 102.851 727.404 103.399C725.748 103.836 724.148 104.055 722.604 104.055C719.514 104.055 717.307 102.851 715.983 100.444C714.659 98.0371 713.997 95.1376 713.997 91.7457C713.997 87.8067 714.99 84.6883 716.976 82.3906C718.962 80.0928 722.273 78.4516 726.907 77.4668C728.342 77.1386 729.942 76.6462 731.707 75.9897C733.473 75.2238 735.128 74.239 736.673 73.0354ZM694.962 55.9665H715.486V53.5046C715.486 50.0033 716.369 47.2132 718.135 45.1343C719.9 43.0554 722.548 42.0159 726.079 42.0159C729.942 42.0159 732.645 43.0006 734.19 44.9701C735.845 46.8302 736.673 49.4562 736.673 52.8481C736.673 55.8024 736.011 58.0454 734.686 59.5772C733.362 61.1091 730.99 62.3127 727.569 63.188L714.659 66.6346C710.686 67.7288 707.265 68.987 704.396 70.4095C701.638 71.8319 699.321 73.6372 697.445 75.8256C695.679 77.9045 694.355 80.4758 693.472 83.5394C692.589 86.4937 692.148 90.0497 692.148 94.2075C692.148 97.1618 692.534 100.171 693.307 103.234C694.079 106.189 695.293 108.869 696.948 111.276C698.603 113.684 700.81 115.598 703.569 117.021C706.328 118.334 709.693 118.99 713.666 118.99C719.183 118.99 723.652 118.334 727.073 117.021C730.604 115.598 733.693 112.589 736.342 107.994H736.673C737.004 109.526 737.335 111.112 737.666 112.754C738.107 114.285 738.714 115.763 739.487 117.185H761.335C760.232 114.559 759.459 112.097 759.018 109.799C758.687 107.502 758.521 104.274 758.521 100.116V53.6688C758.521 49.7298 758.08 46.119 757.197 42.8365C756.425 39.4446 754.88 36.5451 752.562 34.1379C750.245 31.7308 746.99 29.8707 742.797 28.5577C738.604 27.2447 733.086 26.5882 726.245 26.5882C721.942 26.5882 717.859 27.0806 713.997 28.0653C710.245 28.9406 706.934 30.4725 704.065 32.6608C701.307 34.7397 699.1 37.5298 697.445 41.0312C695.79 44.4231 694.962 48.6903 694.962 53.8329V55.9665Z" fill="#F9F9F9"/>
<path d="M779.781 3.61074V28.8859H768.195V44.3136H779.781V94.864C779.781 99.3501 780.057 103.07 780.609 106.024C781.161 108.979 782.154 111.386 783.588 113.246C785.133 114.997 787.285 116.2 790.043 116.857C792.912 117.404 796.554 117.677 800.968 117.677C803.616 117.677 806.099 117.568 808.416 117.349C810.844 117.24 813.326 117.185 815.864 117.185V101.429C815.092 101.538 814.264 101.648 813.382 101.757C812.499 101.757 811.616 101.757 810.733 101.757C807.423 101.757 805.216 101.046 804.113 99.6236C803.119 98.0918 802.623 95.5752 802.623 92.0739V44.3136H815.864V28.8859H802.623V3.61074H779.781Z" fill="#F9F9F9"/>
<path d="M865.338 73.0354V90.4327C865.338 92.8398 864.896 94.9187 864.014 96.6694C863.131 98.4201 861.972 99.8425 860.538 100.937C859.214 102.031 857.724 102.851 856.069 103.399C854.413 103.836 852.813 104.055 851.269 104.055C848.179 104.055 845.972 102.851 844.648 100.444C843.324 98.0371 842.662 95.1376 842.662 91.7457C842.662 87.8067 843.655 84.6883 845.641 82.3906C847.627 80.0928 850.938 78.4516 855.572 77.4668C857.007 77.1386 858.607 76.6462 860.372 75.9897C862.138 75.2238 863.793 74.239 865.338 73.0354ZM823.627 55.9665H844.151V53.5046C844.151 50.0033 845.034 47.2132 846.8 45.1343C848.565 43.0554 851.213 42.0159 854.744 42.0159C858.607 42.0159 861.31 43.0006 862.855 44.9701C864.51 46.8302 865.338 49.4562 865.338 52.8481C865.338 55.8024 864.676 58.0454 863.351 59.5772C862.027 61.1091 859.655 62.3127 856.234 63.188L843.324 66.6346C839.351 67.7288 835.931 68.987 833.062 70.4095C830.303 71.8319 827.986 73.6372 826.11 75.8256C824.344 77.9045 823.02 80.4758 822.137 83.5394C821.254 86.4937 820.813 90.0497 820.813 94.2075C820.813 97.1618 821.199 100.171 821.972 103.234C822.744 106.189 823.958 108.869 825.613 111.276C827.268 113.684 829.475 115.598 832.234 117.021C834.993 118.334 838.358 118.99 842.331 118.99C847.848 118.99 852.317 118.334 855.738 117.021C859.269 115.598 862.358 112.589 865.007 107.994H865.338C865.669 109.526 866 111.112 866.331 112.754C866.772 114.285 867.379 115.763 868.152 117.185H890C888.897 114.559 888.124 112.097 887.683 109.799C887.352 107.502 887.186 104.274 887.186 100.116V53.6688C887.186 49.7298 886.745 46.119 885.862 42.8365C885.09 39.4446 883.545 36.5451 881.228 34.1379C878.91 31.7308 875.655 29.8707 871.462 28.5577C867.269 27.2447 861.751 26.5882 854.91 26.5882C850.607 26.5882 846.524 27.0806 842.662 28.0653C838.91 28.9406 835.599 30.4725 832.73 32.6608C829.972 34.7397 827.765 37.5298 826.11 41.0312C824.455 44.4231 823.627 48.6903 823.627 53.8329V55.9665Z" fill="#F9F9F9"/>
</svg>
