<?xml version="1.0"?>
<svg xmlns="http://www.w3.org/2000/svg" xmlns:xlink="http://www.w3.org/1999/xlink" xmlns:svgjs="http://svgjs.com/svgjs" version="1.1" width="512" height="512" x="0" y="0" viewBox="0 0 512 512" style="enable-background:new 0 0 512 512" xml:space="preserve" class=""><g><g xmlns="http://www.w3.org/2000/svg"><g><path d="m256 360.099c-57.4 0-104.099-46.698-104.099-104.099s46.699-104.099 104.099-104.099 104.099 46.699 104.099 104.099-46.699 104.099-104.099 104.099z" fill="#b8b8b8" data-original="#000000" style="" class=""/></g><g><path d="m256 116.071c-8.284 0-15-6.716-15-15v-86.071c0-8.284 6.716-15 15-15s15 6.716 15 15v86.071c0 8.284-6.716 15-15 15z" fill="#b8b8b8" data-original="#000000" style="" class=""/></g><g><path d="m146.449 161.449c-3.839 0-7.678-1.464-10.606-4.393l-60.863-60.862c-5.858-5.858-5.858-15.355 0-21.213 5.857-5.858 15.355-5.858 21.213 0l60.862 60.861c5.858 5.858 5.858 15.355 0 21.213-2.928 2.929-6.767 4.394-10.606 4.394z" fill="#b8b8b8" data-original="#000000" style="" class=""/></g><g><path d="m101.071 271h-86.071c-8.284 0-15-6.716-15-15s6.716-15 15-15h86.071c8.284 0 15 6.716 15 15s-6.716 15-15 15z" fill="#b8b8b8" data-original="#000000" style="" class=""/></g><g><path d="m85.587 441.413c-3.839 0-7.678-1.464-10.606-4.394-5.858-5.858-5.858-15.355 0-21.213l60.862-60.861c5.858-5.857 15.356-5.857 21.213 0 5.858 5.858 5.858 15.355 0 21.213l-60.863 60.862c-2.928 2.928-6.767 4.393-10.606 4.393z" fill="#b8b8b8" data-original="#000000" style="" class=""/></g><g><path d="m256 512c-8.284 0-15-6.716-15-15v-86.071c0-8.284 6.716-15 15-15s15 6.716 15 15v86.071c0 8.284-6.716 15-15 15z" fill="#b8b8b8" data-original="#000000" style="" class=""/></g><g><path d="m426.413 441.413c-3.839 0-7.678-1.464-10.606-4.393l-60.862-60.861c-5.858-5.858-5.858-15.355 0-21.213 5.857-5.858 15.355-5.858 21.213 0l60.862 60.861c5.858 5.858 5.858 15.355 0 21.213-2.929 2.928-6.768 4.393-10.607 4.393z" fill="#b8b8b8" data-original="#000000" style="" class=""/></g><g><path d="m497 271h-86.071c-8.284 0-15-6.716-15-15s6.716-15 15-15h86.071c8.284 0 15 6.716 15 15s-6.716 15-15 15z" fill="#b8b8b8" data-original="#000000" style="" class=""/></g><g><path d="m365.551 161.449c-3.839 0-7.678-1.464-10.606-4.394-5.858-5.858-5.858-15.355 0-21.213l60.862-60.861c5.857-5.856 15.355-5.858 21.213 0s5.858 15.355 0 21.213l-60.862 60.861c-2.929 2.929-6.769 4.394-10.607 4.394z" fill="#b8b8b8" data-original="#000000" style="" class=""/></g></g></g></svg>
