<svg width="10" height="10" viewBox="0 0 10 10" fill="none" xmlns="http://www.w3.org/2000/svg">
<path d="M0.127681 9.25985C-0.0393333 9.42683 -0.045757 9.70298 0.127681 9.86995C0.301119 10.0433 0.577335 10.0433 0.744349 9.86995L5.00321 5.61853L9.25565 9.86995C9.42266 10.0433 9.7053 10.0433 9.87232 9.86995C10.0393 9.70298 10.0393 9.42683 9.87232 9.25985L5.61346 5.00201L9.87232 0.74417C10.0393 0.577196 10.0458 0.294625 9.87232 0.12765C9.69888 -0.0393239 9.42266 -0.0393239 9.25565 0.12765L5.00321 4.38549L0.744349 0.12765C0.577335 -0.0393239 0.294695 -0.045746 0.127681 0.12765C-0.0393333 0.301047 -0.0393333 0.577196 0.127681 0.74417L4.38654 5.00201L0.127681 9.25985Z" fill="#F9F9F9"/>
</svg>
