<svg width="16" height="22" viewBox="0 0 16 22" fill="none" xmlns="http://www.w3.org/2000/svg">
<path fill-rule="evenodd" clip-rule="evenodd" d="M8 17L15.5 21.5V3.5C15.5 2.70435 15.1839 1.94129 14.6213 1.37868C14.0587 0.816071 13.2956 0.5 12.5 0.5H3.5C2.70435 0.5 1.94129 0.816071 1.37868 1.37868C0.81607 1.94129 0.5 2.70435 0.5 3.5V21.5L8 17ZM2 18.851L8 15.251L14 18.851V3.5C14 3.10218 13.842 2.72064 13.5607 2.43934C13.2794 2.15804 12.8978 2 12.5 2H3.5C3.10218 2 2.72064 2.15804 2.43934 2.43934C2.15804 2.72064 2 3.10218 2 3.5V18.851Z" fill="#282828"/>
</svg>
